# xmcd CD database file
#
# Track frame offsets:
#	150
#	13855
#	23027
#	35815
#	52346
#	81058
#	99446
#	142660
#	159513
#	176397
#	193581
#	219023
#	231407
#	251513
#	264046
#	290783
#
# Disc length: 3907 seconds
#
# Revision: 0
# Processed by: cddbd v1.4PL0 Copyright (c) Steve Scherf et al.
# Submitted via: CDex 1.50beta9
#
DISCID=d50f4110
DTITLE=Clever Jatobá - Clever Jatobá Ao vivo
DYEAR=2000
DGENRE=Country
TTITLE0=Abertura
TTITLE1=Cobertor
TTITLE2=Quero sentir
TTITLE3=Que nem Jiló
TTITLE4=Forró de cabo a rabo, Diga que valeu e um girasso em seus cabelos
TTITLE5=Nas mmargens do S. Francisco
TTITLE6=Dormi na praça, O seu olhar nao mente, Tareco e Mariola, Lembrança de um beijo
TTITLE7=Farinha
TTITLE8=Domingo no parque
TTITLE9=Um Sonho de Amor
TTITLE10=Seu Amor é bom, Baba Baby
TTITLE11=O Pãozinho
TTITLE12=Quero você, xibiu, céu da boca
TTITLE13=Raios de Neon
TTITLE14=A fogueira está Queimando
TTITLE15=Pular fogueira
EXTD=YEAR: 2000
EXTT0=
EXTT1=
EXTT2=
EXTT3=
EXTT4=
EXTT5=
EXTT6=
EXTT7=
EXTT8=
EXTT9=
EXTT10=
EXTT11=
EXTT12=
EXTT13=
EXTT14=
EXTT15=
PLAYORDER=
